<svg xmlns="http://www.w3.org/2000/svg" width="760" height="280" viewBox="0 0 760 280" font-family="sans-serif" fill="#222"><text x="380" y="24" font-size="15" font-weight="bold" text-anchor="middle">Tamanho das imagens — snapshot-1</text><line x1="70" y1="60" x2="70" y2="210" stroke="#e0e0e0"/><text x="70" y="228" font-size="11" text-anchor="middle">0</text><line x1="202" y1="60" x2="202" y2="210" stroke="#e0e0e0"/><text x="202" y="228" font-size="11" text-anchor="middle">40</text><line x1="334" y1="60" x2="334" y2="210" stroke="#e0e0e0"/><text x="334" y="228" font-size="11" text-anchor="middle">80</text><line x1="466" y1="60" x2="466" y2="210" stroke="#e0e0e0"/><text x="466" y="228" font-size="11" text-anchor="middle">120</text><line x1="598" y1="60" x2="598" y2="210" stroke="#e0e0e0"/><text x="598" y="228" font-size="11" text-anchor="middle">160</text><line x1="730" y1="60" x2="730" y2="210" stroke="#e0e0e0"/><text x="730" y="228" font-size="11" text-anchor="middle">200</text><text x="60" y="89" font-size="11" text-anchor="end">inventory-api-s1-monolith</text><rect x="70" y="65" width="500.2" height="38" fill="#4472c4"><title>inventory-api-s1-monolith — MB: 151.6MB</title></rect><text x="60" y="139" font-size="11" text-anchor="end">inventory-api-s1-reports</text><rect x="70" y="115" width="615.8" height="38" fill="#4472c4"><title>inventory-api-s1-reports — MB: 186.6MB</title></rect><text x="60" y="189" font-size="11" text-anchor="end">nginx:alpine</text><rect x="70" y="165" width="82.9" height="38" fill="#4472c4"><title>nginx:alpine — MB: 25.1MB</title></rect><line x1="70" y1="60" x2="70" y2="210" stroke="#333"/><line x1="70" y1="210" x2="730" y2="210" stroke="#333"/><text x="400" y="266" font-size="12" text-anchor="middle">Tamanho das imagens (MB)</text></svg>