<svg xmlns="http://www.w3.org/2000/svg" width="720" height="400" viewBox="0 0 720 400" font-family="sans-serif" fill="#222"><text x="360" y="24" font-size="15" font-weight="bold" text-anchor="middle">Latencia por rota — snapshot-1</text><rect x="70" y="37" width="12" height="12" fill="#4472c4"/><text x="87" y="47" font-size="12">p50</text><rect x="200" y="37" width="12" height="12" fill="#ed7d31"/><text x="217" y="47" font-size="12">p90</text><rect x="330" y="37" width="12" height="12" fill="#a5a5a5"/><text x="347" y="47" font-size="12">p99</text><line x1="70" y1="330" x2="690" y2="330" stroke="#e0e0e0"/><text x="62" y="334" font-size="11" text-anchor="end">0</text><line x1="70" y1="276" x2="690" y2="276" stroke="#e0e0e0"/><text x="62" y="280" font-size="11" text-anchor="end">100</text><line x1="70" y1="222" x2="690" y2="222" stroke="#e0e0e0"/><text x="62" y="226" font-size="11" text-anchor="end">200</text><line x1="70" y1="168" x2="690" y2="168" stroke="#e0e0e0"/><text x="62" y="172" font-size="11" text-anchor="end">300</text><line x1="70" y1="114" x2="690" y2="114" stroke="#e0e0e0"/><text x="62" y="118" font-size="11" text-anchor="end">400</text><line x1="70" y1="60" x2="690" y2="60" stroke="#e0e0e0"/><text x="62" y="64" font-size="11" text-anchor="end">500</text><text x="147.5" y="348" font-size="11" text-anchor="middle">products</text><rect x="85.5" y="297.6" width="39.3" height="32.4" fill="#4472c4"><title>products — p50: 60ms</title></rect><line x1="105.1" y1="293.8" x2="105.1" y2="298.7" stroke="#333"/><line x1="101.1" y1="293.8" x2="109.1" y2="293.8" stroke="#333"/><line x1="101.1" y1="298.7" x2="109.1" y2="298.7" stroke="#333"/><rect x="126.8" y="291.7" width="39.3" height="38.3" fill="#ed7d31"><title>products — p90: 71ms</title></rect><line x1="146.5" y1="284.6" x2="146.5" y2="292.2" stroke="#333"/><line x1="142.5" y1="284.6" x2="150.5" y2="284.6" stroke="#333"/><line x1="142.5" y1="292.2" x2="150.5" y2="292.2" stroke="#333"/><rect x="168.2" y="267.4" width="39.3" height="62.6" fill="#a5a5a5"><title>products — p99: 116ms</title></rect><line x1="187.8" y1="259.3" x2="187.8" y2="283" stroke="#333"/><line x1="183.8" y1="259.3" x2="191.8" y2="259.3" stroke="#333"/><line x1="183.8" y1="283" x2="191.8" y2="283" stroke="#333"/><text x="302.5" y="348" font-size="11" text-anchor="middle">reports-movements</text><rect x="240.5" y="290" width="39.3" height="40" fill="#4472c4"><title>reports-movements — p50: 74ms</title></rect><line x1="260.1" y1="283.6" x2="260.1" y2="290.6" stroke="#333"/><line x1="256.1" y1="283.6" x2="264.1" y2="283.6" stroke="#333"/><line x1="256.1" y1="290.6" x2="264.1" y2="290.6" stroke="#333"/><rect x="281.8" y="283" width="39.3" height="47" fill="#ed7d31"><title>reports-movements — p90: 87ms</title></rect><line x1="301.5" y1="275.5" x2="301.5" y2="285.2" stroke="#333"/><line x1="297.5" y1="275.5" x2="305.5" y2="275.5" stroke="#333"/><line x1="297.5" y1="285.2" x2="305.5" y2="285.2" stroke="#333"/><rect x="323.2" y="251.2" width="39.3" height="78.8" fill="#a5a5a5"><title>reports-movements — p99: 146ms</title></rect><line x1="342.8" y1="237.1" x2="342.8" y2="252.2" stroke="#333"/><line x1="338.8" y1="237.1" x2="346.8" y2="237.1" stroke="#333"/><line x1="338.8" y1="252.2" x2="346.8" y2="252.2" stroke="#333"/><text x="457.5" y="348" font-size="11" text-anchor="middle">reports-stock</text><rect x="395.5" y="251.7" width="39.3" height="78.3" fill="#4472c4"><title>reports-stock — p50: 145ms</title></rect><line x1="415.1" y1="244.7" x2="415.1" y2="265.2" stroke="#333"/><line x1="411.1" y1="244.7" x2="419.1" y2="244.7" stroke="#333"/><line x1="411.1" y1="265.2" x2="419.1" y2="265.2" stroke="#333"/><rect x="436.8" y="229.6" width="39.3" height="100.4" fill="#ed7d31"><title>reports-stock — p90: 186ms</title></rect><line x1="456.5" y1="219.3" x2="456.5" y2="255.5" stroke="#333"/><line x1="452.5" y1="219.3" x2="460.5" y2="219.3" stroke="#333"/><line x1="452.5" y1="255.5" x2="460.5" y2="255.5" stroke="#333"/><rect x="478.2" y="199.9" width="39.3" height="130.1" fill="#a5a5a5"><title>reports-stock — p99: 241ms</title></rect><line x1="497.8" y1="191.8" x2="497.8" y2="234.4" stroke="#333"/><line x1="493.8" y1="191.8" x2="501.8" y2="191.8" stroke="#333"/><line x1="493.8" y1="234.4" x2="501.8" y2="234.4" stroke="#333"/><text x="612.5" y="348" font-size="11" text-anchor="middle">movements-post</text><rect x="550.5" y="283.6" width="39.3" height="46.4" fill="#4472c4"><title>movements-post — p50: 86ms</title></rect><line x1="570.1" y1="276.5" x2="570.1" y2="283.6" stroke="#333"/><line x1="566.1" y1="276.5" x2="574.1" y2="276.5" stroke="#333"/><line x1="566.1" y1="283.6" x2="574.1" y2="283.6" stroke="#333"/><rect x="591.8" y="275.5" width="39.3" height="54.5" fill="#ed7d31"><title>movements-post — p90: 101ms</title></rect><line x1="611.5" y1="266.3" x2="611.5" y2="277.1" stroke="#333"/><line x1="607.5" y1="266.3" x2="615.5" y2="266.3" stroke="#333"/><line x1="607.5" y1="277.1" x2="615.5" y2="277.1" stroke="#333"/><rect x="633.2" y="262.5" width="39.3" height="67.5" fill="#a5a5a5"><title>movements-post — p99: 125ms</title></rect><line x1="652.8" y1="227.9" x2="652.8" y2="263.6" stroke="#333"/><line x1="648.8" y1="227.9" x2="656.8" y2="227.9" stroke="#333"/><line x1="648.8" y1="263.6" x2="656.8" y2="263.6" stroke="#333"/><line x1="70" y1="60" x2="70" y2="330" stroke="#333"/><line x1="70" y1="330" x2="690" y2="330" stroke="#333"/><text x="380" y="386" font-size="12" text-anchor="middle"> (ms)</text></svg>