<svg xmlns="http://www.w3.org/2000/svg" width="720" height="400" viewBox="0 0 720 400" font-family="sans-serif" fill="#222"><text x="360" y="24" font-size="15" font-weight="bold" text-anchor="middle">Latencia por rota — snapshot-0</text><rect x="70" y="37" width="12" height="12" fill="#4472c4"/><text x="87" y="47" font-size="12">p50</text><rect x="200" y="37" width="12" height="12" fill="#ed7d31"/><text x="217" y="47" font-size="12">p90</text><rect x="330" y="37" width="12" height="12" fill="#a5a5a5"/><text x="347" y="47" font-size="12">p99</text><line x1="70" y1="330" x2="690" y2="330" stroke="#e0e0e0"/><text x="62" y="334" font-size="11" text-anchor="end">0</text><line x1="70" y1="276" x2="690" y2="276" stroke="#e0e0e0"/><text x="62" y="280" font-size="11" text-anchor="end">40</text><line x1="70" y1="222" x2="690" y2="222" stroke="#e0e0e0"/><text x="62" y="226" font-size="11" text-anchor="end">80</text><line x1="70" y1="168" x2="690" y2="168" stroke="#e0e0e0"/><text x="62" y="172" font-size="11" text-anchor="end">120</text><line x1="70" y1="114" x2="690" y2="114" stroke="#e0e0e0"/><text x="62" y="118" font-size="11" text-anchor="end">160</text><line x1="70" y1="60" x2="690" y2="60" stroke="#e0e0e0"/><text x="62" y="64" font-size="11" text-anchor="end">200</text><text x="147.5" y="348" font-size="11" text-anchor="middle">products</text><rect x="85.5" y="284.1" width="39.3" height="45.9" fill="#4472c4"><title>products — p50: 34ms</title></rect><line x1="105.1" y1="281.4" x2="105.1" y2="284.1" stroke="#333"/><line x1="101.1" y1="281.4" x2="109.1" y2="281.4" stroke="#333"/><line x1="101.1" y1="284.1" x2="109.1" y2="284.1" stroke="#333"/><rect x="126.8" y="278.7" width="39.3" height="51.3" fill="#ed7d31"><title>products — p90: 38ms</title></rect><line x1="146.5" y1="276" x2="146.5" y2="278.7" stroke="#333"/><line x1="142.5" y1="276" x2="150.5" y2="276" stroke="#333"/><line x1="142.5" y1="278.7" x2="150.5" y2="278.7" stroke="#333"/><rect x="168.2" y="269.3" width="39.3" height="60.8" fill="#a5a5a5"><title>products — p99: 45ms</title></rect><line x1="187.8" y1="267.9" x2="187.8" y2="270.6" stroke="#333"/><line x1="183.8" y1="267.9" x2="191.8" y2="267.9" stroke="#333"/><line x1="183.8" y1="270.6" x2="191.8" y2="270.6" stroke="#333"/><text x="302.5" y="348" font-size="11" text-anchor="middle">reports-movements</text><rect x="240.5" y="257.1" width="39.3" height="72.9" fill="#4472c4"><title>reports-movements — p50: 54ms</title></rect><line x1="260.1" y1="251.7" x2="260.1" y2="258.5" stroke="#333"/><line x1="256.1" y1="251.7" x2="264.1" y2="251.7" stroke="#333"/><line x1="256.1" y1="258.5" x2="264.1" y2="258.5" stroke="#333"/><rect x="281.8" y="251.7" width="39.3" height="78.3" fill="#ed7d31"><title>reports-movements — p90: 58ms</title></rect><line x1="301.5" y1="239.6" x2="301.5" y2="251.7" stroke="#333"/><line x1="297.5" y1="239.6" x2="305.5" y2="239.6" stroke="#333"/><line x1="297.5" y1="251.7" x2="305.5" y2="251.7" stroke="#333"/><rect x="323.2" y="192.3" width="39.3" height="137.7" fill="#a5a5a5"><title>reports-movements — p99: 102ms</title></rect><line x1="342.8" y1="178.8" x2="342.8" y2="192.3" stroke="#333"/><line x1="338.8" y1="178.8" x2="346.8" y2="178.8" stroke="#333"/><line x1="338.8" y1="192.3" x2="346.8" y2="192.3" stroke="#333"/><text x="457.5" y="348" font-size="11" text-anchor="middle">reports-stock</text><rect x="395.5" y="199.1" width="39.3" height="131" fill="#4472c4"><title>reports-stock — p50: 97ms</title></rect><line x1="415.1" y1="196.4" x2="415.1" y2="199.1" stroke="#333"/><line x1="411.1" y1="196.4" x2="419.1" y2="196.4" stroke="#333"/><line x1="411.1" y1="199.1" x2="419.1" y2="199.1" stroke="#333"/><rect x="436.8" y="192.3" width="39.3" height="137.7" fill="#ed7d31"><title>reports-stock — p90: 102ms</title></rect><line x1="456.5" y1="185.6" x2="456.5" y2="193.7" stroke="#333"/><line x1="452.5" y1="185.6" x2="460.5" y2="185.6" stroke="#333"/><line x1="452.5" y1="193.7" x2="460.5" y2="193.7" stroke="#333"/><rect x="478.2" y="172.1" width="39.3" height="158" fill="#a5a5a5"><title>reports-stock — p99: 117ms</title></rect><line x1="497.8" y1="172.1" x2="497.8" y2="184.2" stroke="#333"/><line x1="493.8" y1="172.1" x2="501.8" y2="172.1" stroke="#333"/><line x1="493.8" y1="184.2" x2="501.8" y2="184.2" stroke="#333"/><text x="612.5" y="348" font-size="11" text-anchor="middle">movements-post</text><rect x="550.5" y="245" width="39.3" height="85.1" fill="#4472c4"><title>movements-post — p50: 63ms</title></rect><line x1="570.1" y1="243.6" x2="570.1" y2="246.3" stroke="#333"/><line x1="566.1" y1="243.6" x2="574.1" y2="243.6" stroke="#333"/><line x1="566.1" y1="246.3" x2="574.1" y2="246.3" stroke="#333"/><rect x="591.8" y="232.8" width="39.3" height="97.2" fill="#ed7d31"><title>movements-post — p90: 72ms</title></rect><line x1="611.5" y1="228.8" x2="611.5" y2="235.5" stroke="#333"/><line x1="607.5" y1="228.8" x2="615.5" y2="228.8" stroke="#333"/><line x1="607.5" y1="235.5" x2="615.5" y2="235.5" stroke="#333"/><rect x="633.2" y="211.2" width="39.3" height="118.8" fill="#a5a5a5"><title>movements-post — p99: 88ms</title></rect><line x1="652.8" y1="203.1" x2="652.8" y2="215.3" stroke="#333"/><line x1="648.8" y1="203.1" x2="656.8" y2="203.1" stroke="#333"/><line x1="648.8" y1="215.3" x2="656.8" y2="215.3" stroke="#333"/><line x1="70" y1="60" x2="70" y2="330" stroke="#333"/><line x1="70" y1="330" x2="690" y2="330" stroke="#333"/><text x="380" y="386" font-size="12" text-anchor="middle"> (ms)</text></svg>